<svg id="visual" viewBox="0 0 960 540" width="960" height="540" xmlns="http://www.w3.org/2000/svg" xmlns:xlink="http://www.w3.org/1999/xlink" version="1.1"><rect x="0" y="0" width="960" height="540" fill="#E8DFCA"></rect><defs><linearGradient id="grad1_0" x1="43.8%" y1="0%" x2="100%" y2="100%"><stop offset="14.444444444444446%" stop-color="#e8dfca" stop-opacity="1"></stop><stop offset="85.55555555555554%" stop-color="#e8dfca" stop-opacity="1"></stop></linearGradient></defs><defs><linearGradient id="grad2_0" x1="0%" y1="0%" x2="56.3%" y2="100%"><stop offset="14.444444444444446%" stop-color="#e8dfca" stop-opacity="1"></stop><stop offset="85.55555555555554%" stop-color="#e8dfca" stop-opacity="1"></stop></linearGradient></defs><g transform="translate(960, 0)"><path d="M0 343C-34.9 341.1 -69.8 339.2 -108.2 332.9C-146.5 326.5 -188.2 315.7 -206.3 284C-224.4 252.3 -218.8 199.7 -227.3 165.2C-235.9 130.6 -258.7 114.1 -275.8 89.6C-292.9 65.1 -304.5 32.5 -316 0L0 0Z" fill="#7895B2"></path></g><g transform="translate(0, 540)"><path d="M0 -351C26 -316.1 52.1 -281.2 89.3 -274.9C126.5 -268.6 174.9 -290.9 202.8 -279.1C230.7 -267.4 238 -221.5 259.7 -188.7C281.4 -155.8 317.3 -135.9 328.1 -106.6C338.9 -77.3 324.4 -38.7 310 0L0 0Z" fill="#7895B2"></path></g></svg>